<svg xmlns="http://www.w3.org/2000/svg" xmlns:xlink="http://www.w3.org/1999/xlink" width="64" zoomAndPan="magnify" viewBox="0 0 48 48" height="64" preserveAspectRatio="xMidYMid meet" version="1.0"><defs><g/><clipPath id="355649d655"><path d="M 5.546875 12.003906 L 43 12.003906 L 43 35.515625 L 5.546875 35.515625 Z M 5.546875 12.003906 " clip-rule="nonzero"/></clipPath></defs><g clip-path="url(#355649d655)"><path fill="#f797a5" d="M 42.621094 22.683594 C 42.363281 19.035156 38.960938 16.445312 35.648438 14.992188 C 30.886719 12.902344 25.664062 12.050781 20.5 12.082031 C 15.714844 12.109375 10.410156 13.21875 7.710938 17.210938 C 6.191406 19.457031 5.753906 22.261719 5.433594 24.980469 C 5.191406 27.03125 5.039062 29.230469 5.976562 31.082031 C 7.511719 34.070312 11.257812 34.960938 14.546875 35.238281 C 18.8125 35.597656 25.375 35.429688 27.773438 35.160156 C 30.175781 34.882812 35.714844 34.199219 38.570312 32.011719 C 41.417969 29.820312 43.460938 26.261719 42.621094 22.683594 " fill-opacity="1" fill-rule="nonzero"/></g><g fill="#ffffff" fill-opacity="1"><g transform="translate(18.784203, 29.634026)"><g><path d="M 3.8125 0 C 3.65625 0 3.539062 -0.0234375 3.46875 -0.078125 C 3.394531 -0.140625 3.359375 -0.242188 3.359375 -0.390625 L 3.359375 -2.328125 C 3.234375 -2.410156 2.988281 -2.484375 2.625 -2.546875 C 2.269531 -2.617188 1.9375 -2.664062 1.625 -2.6875 C 1.519531 -2.476562 1.441406 -2.226562 1.390625 -1.9375 L 1.328125 -1.640625 C 1.316406 -1.566406 1.285156 -1.410156 1.234375 -1.171875 C 1.191406 -0.941406 1.140625 -0.738281 1.078125 -0.5625 C 1.015625 -0.394531 0.957031 -0.257812 0.90625 -0.15625 C 0.53125 -0.15625 0.3125 -0.253906 0.25 -0.453125 C 0.363281 -0.617188 0.488281 -1.082031 0.625 -1.84375 L 1.109375 -4.5625 C 1.328125 -5.84375 1.523438 -6.9375 1.703125 -7.84375 C 1.890625 -8.75 2.085938 -9.507812 2.296875 -10.125 C 2.523438 -10.800781 2.738281 -11.140625 2.9375 -11.140625 C 3.144531 -11.140625 3.304688 -11.101562 3.421875 -11.03125 C 3.421875 -10.632812 3.515625 -9.679688 3.703125 -8.171875 C 3.898438 -6.691406 4 -5.679688 4 -5.140625 C 4 -4.609375 4.050781 -3.859375 4.15625 -2.890625 C 4.257812 -1.890625 4.3125 -1.09375 4.3125 -0.5 C 4.3125 -0.164062 4.144531 0 3.8125 0 Z M 3.046875 -3.1875 C 3.128906 -3.1875 3.226562 -3.195312 3.34375 -3.21875 C 3.3125 -3.65625 3.265625 -4.195312 3.203125 -4.84375 C 2.972656 -7.070312 2.859375 -8.4375 2.859375 -8.9375 L 2.859375 -9.0625 C 2.753906 -8.957031 2.613281 -8.507812 2.4375 -7.71875 C 2.269531 -6.925781 2.113281 -6.070312 1.96875 -5.15625 C 1.820312 -4.25 1.742188 -3.648438 1.734375 -3.359375 C 2.148438 -3.242188 2.585938 -3.1875 3.046875 -3.1875 Z M 3.046875 -3.1875 "/></g></g></g><g fill="#ffffff" fill-opacity="1"><g transform="translate(23.963225, 29.634026)"><g><path d="M 3.25 0.390625 C 2.707031 0.390625 2.257812 0.222656 1.90625 -0.109375 C 1.625 -0.335938 1.363281 -0.738281 1.125 -1.3125 C 0.976562 -1.6875 0.859375 -2.21875 0.765625 -2.90625 C 0.703125 -3.457031 0.671875 -3.976562 0.671875 -4.46875 C 0.660156 -4.59375 0.65625 -4.816406 0.65625 -5.140625 L 0.65625 -6.234375 C 0.65625 -6.648438 0.671875 -7.15625 0.703125 -7.75 C 0.734375 -8.257812 0.8125 -8.773438 0.9375 -9.296875 C 1.0625 -9.804688 1.25 -10.238281 1.5 -10.59375 C 1.738281 -10.96875 2.066406 -11.234375 2.484375 -11.390625 C 2.734375 -11.460938 2.96875 -11.5 3.1875 -11.5 C 3.59375 -11.5 3.796875 -11.359375 3.796875 -11.078125 C 3.796875 -10.972656 3.757812 -10.890625 3.6875 -10.828125 C 3.613281 -10.765625 3.519531 -10.734375 3.40625 -10.734375 C 3.363281 -10.734375 3.296875 -10.742188 3.203125 -10.765625 L 2.984375 -10.796875 C 2.796875 -10.796875 2.628906 -10.738281 2.484375 -10.625 C 2.335938 -10.519531 2.210938 -10.359375 2.109375 -10.140625 C 1.890625 -9.660156 1.738281 -9.140625 1.65625 -8.578125 C 1.550781 -7.890625 1.492188 -7.289062 1.484375 -6.78125 C 1.460938 -6.332031 1.453125 -5.863281 1.453125 -5.375 L 1.453125 -4.96875 C 1.441406 -4.832031 1.4375 -4.660156 1.4375 -4.453125 C 1.4375 -3.953125 1.460938 -3.457031 1.515625 -2.96875 C 1.546875 -2.394531 1.648438 -1.90625 1.828125 -1.5 C 1.992188 -1.03125 2.253906 -0.703125 2.609375 -0.515625 C 2.773438 -0.421875 2.976562 -0.375 3.21875 -0.375 C 3.65625 -0.375 4.023438 -0.578125 4.328125 -0.984375 C 4.316406 -1.335938 4.289062 -1.675781 4.25 -2 C 4.207031 -2.332031 4.144531 -2.554688 4.0625 -2.671875 C 4.050781 -2.671875 4.03125 -2.664062 4 -2.65625 C 3.96875 -2.65625 3.914062 -2.65625 3.84375 -2.65625 L 3.484375 -2.625 C 3.148438 -2.625 2.984375 -2.765625 2.984375 -3.046875 C 2.984375 -3.140625 3.03125 -3.21875 3.125 -3.28125 C 3.226562 -3.351562 3.363281 -3.40625 3.53125 -3.4375 C 3.8125 -3.5 4.0625 -3.53125 4.28125 -3.53125 C 4.476562 -3.53125 4.628906 -3.457031 4.734375 -3.3125 C 4.835938 -3.164062 4.890625 -2.976562 4.890625 -2.75 C 4.890625 -2.425781 4.941406 -1.984375 5.046875 -1.421875 C 5.140625 -0.867188 5.1875 -0.429688 5.1875 -0.109375 C 5.1875 0.00390625 5.148438 0.0976562 5.078125 0.171875 C 5.015625 0.253906 4.9375 0.296875 4.84375 0.296875 C 4.59375 0.296875 4.421875 0.191406 4.328125 -0.015625 L 4.328125 -0.03125 L 4.015625 0.140625 C 3.710938 0.304688 3.457031 0.390625 3.25 0.390625 Z M 3.25 0.390625 "/></g></g></g><g fill="#ffffff" fill-opacity="1"><g transform="translate(24.199938, 34.967036)"><g/></g></g><g fill="#ffffff" fill-opacity="1"><g transform="translate(26.129566, 16.626062)"><g/></g></g></svg>