<svg xmlns="http://www.w3.org/2000/svg" xmlns:xlink="http://www.w3.org/1999/xlink" width="64" zoomAndPan="magnify" viewBox="0 0 48 48" height="64" preserveAspectRatio="xMidYMid meet" version="1.0"><defs><g/><clipPath id="987ed4d4dc"><path d="M 5.546875 12.003906 L 43 12.003906 L 43 35.515625 L 5.546875 35.515625 Z M 5.546875 12.003906 " clip-rule="nonzero"/></clipPath></defs><g clip-path="url(#987ed4d4dc)"><path fill="#f797a5" d="M 42.621094 22.683594 C 42.363281 19.035156 38.960938 16.445312 35.648438 14.992188 C 30.886719 12.902344 25.664062 12.050781 20.5 12.082031 C 15.714844 12.109375 10.410156 13.21875 7.710938 17.210938 C 6.191406 19.457031 5.753906 22.261719 5.433594 24.980469 C 5.191406 27.03125 5.039062 29.230469 5.976562 31.082031 C 7.511719 34.070312 11.257812 34.960938 14.546875 35.238281 C 18.8125 35.597656 25.375 35.429688 27.773438 35.160156 C 30.175781 34.882812 35.714844 34.199219 38.570312 32.011719 C 41.417969 29.820312 43.460938 26.261719 42.621094 22.683594 " fill-opacity="1" fill-rule="nonzero"/></g><g fill="#ffffff" fill-opacity="1"><g transform="translate(17.682162, 27.797291)"><g><path d="M -0.148438 0 L 2.375 0 C 1.761719 -0.992188 1.515625 -1.84375 1.515625 -2.566406 C 1.515625 -4.734375 3.703125 -5.714844 4.59375 -5.714844 C 4.785156 -5.714844 5 -5.675781 5 -5.445312 C 5 -4.792969 2.8125 -3.722656 2.8125 -1.78125 C 2.8125 -1.257812 2.972656 -0.664062 3.378906 0 L 6.792969 0 C 5.546875 -2.160156 5.191406 -4.535156 5.191406 -7.46875 L 0.871094 -7.46875 C 1.21875 -6.960938 1.40625 -6.121094 1.40625 -5.230469 C 1.40625 -4.742188 1.347656 -4.238281 1.226562 -3.761719 C 0.890625 -2.4375 0.257812 -1.097656 -0.148438 0 Z M -0.148438 0 "/></g></g></g><g fill="#ffffff" fill-opacity="1"><g transform="translate(24.321973, 27.797291)"><g><path d="M 6.070312 0 L 6.070312 -3.566406 L 3.40625 -3.871094 L 3.40625 -2.851562 L 5.714844 -3.386719 C 5.089844 -2.546875 2.910156 -1.761719 1.664062 -1.761719 C 1.308594 -1.761719 0.761719 -1.824219 0.761719 -2.289062 C 0.761719 -3.335938 3.507812 -5.507812 5.496094 -5.507812 L 5.496094 -7.46875 C 5.128906 -7.527344 4.742188 -7.585938 4.367188 -7.585938 C 1.464844 -7.585938 0.0976562 -5.65625 0.0976562 -3.753906 C 0.0976562 -1.824219 1.503906 0.117188 4.398438 0.117188 C 4.773438 0.117188 5.386719 0.0898438 6.070312 0 Z M 6.070312 0 "/></g></g></g><g fill="#ffffff" fill-opacity="1"><g transform="translate(24.199938, 32.101741)"><g/></g></g><g fill="#ffffff" fill-opacity="1"><g transform="translate(26.129566, 16.626061)"><g/></g></g></svg>