<svg xmlns="http://www.w3.org/2000/svg" xmlns:xlink="http://www.w3.org/1999/xlink" width="64" zoomAndPan="magnify" viewBox="0 0 48 48" height="64" preserveAspectRatio="xMidYMid meet" version="1.0"><defs><clipPath id="0d477c1889"><path d="M 5.546875 12.003906 L 43 12.003906 L 43 35.515625 L 5.546875 35.515625 Z M 5.546875 12.003906 " clip-rule="nonzero"/></clipPath></defs><g clip-path="url(#0d477c1889)"><path fill="#f797a5" d="M 42.621094 22.683594 C 42.363281 19.035156 38.960938 16.445312 35.648438 14.992188 C 30.886719 12.902344 25.664062 12.050781 20.5 12.082031 C 15.714844 12.109375 10.410156 13.21875 7.710938 17.210938 C 6.191406 19.457031 5.753906 22.261719 5.433594 24.980469 C 5.191406 27.03125 5.039062 29.230469 5.976562 31.082031 C 7.511719 34.070312 11.257812 34.960938 14.546875 35.238281 C 18.8125 35.597656 25.375 35.429688 27.773438 35.160156 C 30.175781 34.882812 35.714844 34.199219 38.570312 32.011719 C 41.417969 29.820312 43.460938 26.261719 42.621094 22.683594 " fill-opacity="1" fill-rule="nonzero"/></g></svg>