<svg xmlns="http://www.w3.org/2000/svg" xmlns:xlink="http://www.w3.org/1999/xlink" width="64" zoomAndPan="magnify" viewBox="0 0 48 48" height="64" preserveAspectRatio="xMidYMid meet" version="1.0"><defs><clipPath id="6f4313edc2"><path d="M 2.21875 10.070312 L 46 10.070312 L 46 37.253906 L 2.21875 37.253906 Z M 2.21875 10.070312 " clip-rule="nonzero"/></clipPath></defs><g clip-path="url(#6f4313edc2)"><path fill="#f797a5" d="M 45.710938 22.417969 C 45.410156 18.199219 41.484375 15.203125 37.660156 13.527344 C 32.167969 11.109375 26.144531 10.125 20.183594 10.160156 C 14.660156 10.195312 8.539062 11.472656 5.421875 16.09375 C 3.671875 18.6875 3.167969 21.929688 2.796875 25.074219 C 2.515625 27.445312 2.339844 29.988281 3.425781 32.128906 C 5.195312 35.582031 9.519531 36.613281 13.3125 36.933594 C 18.234375 37.351562 25.808594 37.15625 28.574219 36.84375 C 31.347656 36.527344 37.742188 35.734375 41.035156 33.203125 C 44.320312 30.671875 46.679688 26.558594 45.710938 22.417969 " fill-opacity="1" fill-rule="nonzero"/></g></svg>